<?xml version="1.0" standalone="no"?>
<!DOCTYPE svg PUBLIC "-//W3C//DTD SVG 20010904//EN"
 "http://www.w3.org/TR/2001/REC-SVG-20010904/DTD/svg10.dtd">
<svg version="1.0" xmlns="http://www.w3.org/2000/svg"
 width="1280.000000pt" height="848.000000pt" viewBox="0 0 1280.000000 848.000000"
 preserveAspectRatio="xMidYMid meet">

<g transform="translate(0.000000,848.000000) scale(0.100000,-0.100000)"
fill="#000000" stroke="none">
<path d="M8180 7871 c-57 -5 -49 -7 70 -13 278 -14 599 -81 877 -183 54 -20
167 -70 252 -112 383 -189 694 -455 902 -769 79 -120 83 -125 48 -59 -67 126
-137 213 -309 386 -187 187 -327 299 -516 414 -421 256 -888 375 -1324 336z"/>
<path d="M8023 7853 c15 -2 39 -2 55 0 15 2 2 4 -28 4 -30 0 -43 -2 -27 -4z"/>
<path d="M4500 7804 c-101 -10 -282 -37 -400 -60 -106 -21 -146 -35 -265 -92
-604 -288 -834 -457 -1097 -807 -225 -299 -325 -491 -381 -730 -129 -545 -41
-1048 276 -1584 36 -60 71 -107 84 -112 11 -4 47 -41 79 -81 135 -171 175
-218 318 -363 83 -84 200 -196 259 -249 278 -247 732 -607 1092 -866 467 -336
698 -523 959 -780 98 -96 217 -220 265 -275 182 -210 351 -453 432 -620 l48
-101 -25 -84 c-49 -167 -75 -319 -81 -471 -5 -129 0 -210 12 -197 2 2 15 87
30 188 36 259 87 471 106 437 28 -49 64 -257 78 -453 6 -72 15 -142 20 -155 5
-13 10 -20 10 -16 1 4 6 51 12 103 16 143 -13 394 -65 576 -19 63 -22 87 -14
103 11 19 11 19 21 -5 5 -14 16 -40 24 -58 8 -18 12 -40 9 -48 -3 -8 -2 -14 3
-14 5 0 11 14 15 31 8 41 21 30 36 -32 7 -27 14 -48 17 -45 3 2 -3 38 -12 78
l-17 73 54 115 c61 130 169 320 204 363 13 16 24 33 24 38 0 11 63 97 107 146
15 17 91 80 168 140 77 60 217 170 310 244 359 287 507 388 1045 719 466 287
653 406 850 543 536 372 919 734 1171 1108 64 96 199 328 199 343 0 5 -32 -46
-71 -115 -165 -288 -368 -538 -633 -778 -351 -319 -645 -529 -1456 -1036 -790
-494 -1131 -734 -1382 -974 -38 -35 -68 -60 -68 -54 0 11 156 156 285 264 169
142 428 332 645 474 197 129 315 204 550 352 672 423 957 619 1255 867 157
131 420 394 526 526 165 206 308 442 396 655 22 55 33 72 34 55 1 -36 57 136
80 249 25 120 39 340 29 456 l-7 90 -3 -65 c-2 -40 -5 -51 -7 -30 -12 118 -26
208 -48 299 -30 123 -117 350 -149 389 -13 15 -80 111 -150 214 -228 335 -423
536 -688 710 -81 54 -188 117 -178 106 3 -3 43 -34 90 -69 92 -68 255 -203
266 -221 4 -6 -47 30 -112 79 -199 150 -331 222 -533 289 -113 37 -362 93
-536 119 -60 9 -130 21 -155 25 -84 15 14 11 145 -5 218 -27 387 -63 610 -129
51 -15 -60 30 -149 61 -374 129 -754 160 -1136 94 -459 -81 -727 -225 -988
-533 -84 -100 -144 -191 -206 -317 -46 -91 -136 -302 -136 -318 0 -4 24 42 54
102 59 124 160 297 209 359 70 91 200 234 256 283 237 209 546 346 892 397
114 17 235 23 246 13 3 -4 -15 -7 -40 -7 -26 0 -93 -7 -150 -15 -647 -97
-1071 -410 -1366 -1009 -39 -79 -71 -148 -71 -152 0 -5 29 46 65 113 122 233
278 437 438 573 45 39 86 70 90 70 5 0 -41 -48 -102 -106 -176 -168 -308 -355
-431 -609 -37 -77 -74 -157 -81 -177 -7 -21 -15 -38 -19 -38 -3 0 -13 25 -22
54 -54 171 -157 397 -253 557 -58 96 -90 133 -224 268 -172 172 -285 259 -451
345 -168 87 -354 145 -585 181 -97 15 -460 28 -555 19z m415 -124 c246 -24
444 -78 650 -180 161 -80 286 -171 425 -310 135 -135 235 -264 343 -444 84
-143 101 -160 35 -38 -69 128 -144 249 -220 351 -69 93 -239 272 -343 360 -73
62 -30 37 64 -38 155 -122 315 -310 447 -527 66 -109 207 -389 239 -475 l17
-46 -47 -128 c-25 -70 -44 -129 -42 -131 2 -3 26 43 52 101 27 58 51 105 55
105 4 0 18 -27 30 -60 13 -34 24 -59 26 -57 2 1 -6 39 -18 83 l-21 81 51 97
c76 144 164 288 245 403 40 55 83 121 96 146 29 56 210 237 313 315 201 149
431 246 713 299 64 12 140 17 265 17 191 -1 293 -17 474 -74 50 -16 129 -38
176 -49 219 -51 485 -220 747 -474 226 -220 320 -343 418 -551 61 -128 156
-401 182 -526 26 -121 25 -411 -1 -530 -53 -243 -173 -498 -342 -726 -30 -42
-53 -78 -50 -81 29 -29 -276 -370 -524 -585 -171 -148 -466 -367 -731 -542
-486 -322 -1093 -742 -1329 -922 -379 -287 -642 -548 -819 -809 -81 -121 -105
-162 -177 -306 l-56 -112 -48 84 c-26 46 -56 96 -66 111 -97 141 -137 205
-173 275 -170 339 -468 625 -1535 1477 -244 194 -521 421 -617 503 -493 426
-791 775 -970 1138 -32 66 -59 115 -59 108 0 -26 144 -292 223 -410 132 -198
244 -331 461 -548 271 -270 417 -395 1111 -942 533 -420 810 -663 1029 -902
120 -131 230 -263 290 -346 43 -60 10 -24 -102 110 -55 66 -180 199 -278 295
-265 260 -447 413 -1109 930 -706 553 -1045 868 -1317 1226 -144 188 -295 466
-363 662 -36 107 -45 151 -24 122 8 -12 9 -10 5 10 -41 169 -60 344 -53 490 3
70 2 92 -3 65 -7 -30 -8 -21 -4 35 6 97 47 277 91 405 19 55 39 119 43 141 29
141 160 341 355 543 102 106 226 214 336 293 41 29 86 61 99 71 40 29 -108
-51 -185 -101 -38 -24 -92 -63 -120 -84 l-50 -40 55 53 c142 137 595 419 793
493 36 14 100 34 143 45 78 20 244 44 251 37 2 -2 -40 -11 -94 -21 -180 -32
-340 -92 -526 -197 -59 -34 -105 -63 -103 -65 2 -3 15 2 28 11 44 29 230 106
351 145 221 72 319 86 582 86 200 -1 244 -4 335 -23 223 -48 489 -161 690
-293 168 -110 480 -444 599 -641 36 -60 36 -44 1 20 -99 178 -283 418 -408
534 -314 290 -730 445 -1207 449 -81 1 -119 4 -100 9 45 11 176 11 300 0z
m4945 -622 c281 -246 483 -562 585 -915 28 -99 55 -243 54 -288 0 -16 -9 15
-18 70 -77 435 -306 829 -676 1164 -38 35 -61 58 -50 53 12 -6 59 -44 105 -84z
m120 3 c44 -40 105 -103 135 -140 98 -121 226 -324 295 -466 81 -166 114 -261
146 -410 12 -60 23 -99 23 -86 1 36 -46 256 -73 346 -14 43 -24 81 -22 82 6 6
53 -131 75 -217 90 -362 78 -706 -36 -1034 -155 -446 -480 -870 -978 -1275
-268 -219 -510 -383 -1189 -808 -666 -418 -938 -605 -1178 -809 -47 -41 -90
-74 -94 -74 -4 0 29 34 73 75 283 263 617 506 1038 757 116 69 307 183 425
253 385 229 693 440 918 629 50 43 92 79 92 82 0 2 -44 -31 -97 -73 -54 -42
-150 -110 -213 -153 -134 -89 -140 -93 -140 -86 0 2 39 33 88 68 102 73 304
234 380 301 75 67 437 449 503 532 186 231 348 567 403 835 20 100 40 269 32
277 -3 4 -6 -5 -6 -18 0 -13 -5 -31 -11 -39 -8 -11 -9 -5 -6 25 8 72 -12 273
-39 392 -83 373 -277 711 -619 1082 -57 62 -20 39 75 -48z m-6816 37 c-10 -13
-43 -49 -72 -82 -308 -340 -518 -755 -573 -1129 -6 -43 -14 -76 -16 -73 -9 8
17 164 43 271 67 265 214 556 395 780 65 81 227 255 237 255 3 0 -3 -10 -14
-22z m-5 -127 c-8 -10 -43 -56 -79 -101 -262 -331 -345 -483 -434 -795 -38
-131 -31 -137 13 -10 20 61 48 128 60 150 12 22 19 31 16 20 -4 -11 -24 -72
-46 -136 -62 -186 -82 -328 -76 -544 4 -144 10 -201 30 -285 66 -276 206 -566
406 -840 280 -384 629 -714 1396 -1320 637 -504 838 -673 1070 -904 155 -154
165 -169 40 -55 -102 91 -401 338 -579 478 -495 389 -1221 1008 -1493 1272
-61 60 -114 109 -118 109 -4 0 73 -84 171 -187 185 -194 181 -198 -12 -14
-119 114 -404 415 -470 496 -118 147 -315 519 -388 737 -65 189 -105 437 -93
573 5 54 4 57 -6 25 -9 -31 -11 -32 -15 -12 -6 39 17 259 39 367 69 342 260
695 498 922 79 75 93 86 70 54z m-632 -1643 c-3 -8 -6 -5 -6 6 -1 11 2 17 5
13 3 -3 4 -12 1 -19z m7950 -10 c-3 -7 -5 -2 -5 12 0 14 2 19 5 13 2 -7 2 -19
0 -25z m-7940 -30 c-3 -8 -6 -5 -6 6 -1 11 2 17 5 13 3 -3 4 -12 1 -19z m7930
-10 c-3 -8 -6 -5 -6 6 -1 11 2 17 5 13 3 -3 4 -12 1 -19z m-7920 -30 c-3 -8
-6 -5 -6 6 -1 11 2 17 5 13 3 -3 4 -12 1 -19z m7897 -57 c-9 -34 -19 -60 -21
-58 -2 3 4 32 13 66 10 33 19 59 21 57 3 -2 -3 -32 -13 -65z m-7875 -11 c0 -9
-4 -8 -9 5 -5 11 -9 27 -9 35 0 9 4 8 9 -5 5 -11 9 -27 9 -35z m35 -100 c5
-17 4 -20 -2 -10 -5 8 -13 26 -16 40 -5 17 -4 20 2 10 5 -8 13 -26 16 -40z
m7805 1 c-6 -18 -13 -30 -15 -28 -2 2 1 18 7 36 6 18 13 30 15 28 2 -2 -1 -18
-7 -36z m-28 -68 c-12 -20 -14 -14 -5 12 4 9 9 14 11 11 3 -2 0 -13 -6 -23z
m-7731 -48 c0 -5 -5 -3 -10 5 -5 8 -10 20 -10 25 0 6 5 3 10 -5 5 -8 10 -19
10 -25z m7701 -22 c-12 -20 -14 -14 -5 12 4 9 9 14 11 11 3 -2 0 -13 -6 -23z
m-3408 -2836 c-284 -293 -473 -571 -608 -892 -16 -38 -17 -39 -26 -17 -11 28
-3 48 67 176 134 242 325 508 499 695 50 54 161 151 172 151 3 0 -44 -51 -104
-113z m-1166 -247 c176 -191 328 -402 413 -569 18 -36 29 -70 25 -79 -4 -12
-26 21 -68 103 -109 209 -189 318 -414 565 -62 67 -113 127 -113 133 0 15 31
-15 157 -153z m576 -710 c-5 -19 -23 -39 -23 -25 0 9 20 45 24 45 2 0 2 -9 -1
-20z m-23 -71 c0 -6 -4 -7 -10 -4 -5 3 -10 11 -10 16 0 6 5 7 10 4 6 -3 10
-11 10 -16z"/>
<path d="M4325 7544 c-515 -79 -1050 -453 -1404 -983 -56 -84 -90 -141 -54
-91 213 295 313 413 455 535 278 239 627 412 988 489 105 22 156 30 375 55 57
7 39 8 -100 9 -95 0 -210 -6 -260 -14z"/>
<path d="M4783 7543 c9 -2 25 -2 35 0 9 3 1 5 -18 5 -19 0 -27 -2 -17 -5z"/>
<path d="M4858 7533 c7 -3 16 -2 19 1 4 3 -2 6 -13 5 -11 0 -14 -3 -6 -6z"/>
<path d="M3213 6865 c-195 -180 -347 -410 -447 -679 -21 -54 -35 -100 -33
-102 2 -2 18 33 36 79 86 213 278 506 456 695 42 45 75 82 73 82 -2 0 -40 -34
-85 -75z"/>
<path d="M2671 5834 c0 -11 3 -14 6 -6 3 7 2 16 -1 19 -3 4 -6 -2 -5 -13z"/>
<path d="M2612 5930 c0 -14 2 -19 5 -12 2 6 2 18 0 25 -3 6 -5 1 -5 -13z"/>
<path d="M2601 5884 c0 -11 3 -14 6 -6 3 7 2 16 -1 19 -3 4 -6 -2 -5 -13z"/>
<path d="M9991 7202 c281 -312 485 -630 574 -894 32 -96 45 -112 20 -25 -27
93 -93 254 -146 357 -100 196 -213 342 -420 545 l-113 110 85 -93z"/>
<path d="M10370 6650 c6 -11 13 -20 16 -20 2 0 0 9 -6 20 -6 11 -13 20 -16 20
-2 0 0 -9 6 -20z"/>
<path d="M10601 6194 c0 -11 3 -14 6 -6 3 7 2 16 -1 19 -3 4 -6 -2 -5 -13z"/>
</g>
</svg>
